<svg width="80" height="25" viewBox="0 0 80 25" fill="none" xmlns="http://www.w3.org/2000/svg">
<path d="M0.295455 24V0.727272H9.02273C10.8106 0.727272 12.3106 1.06061 13.5227 1.72727C14.7424 2.39394 15.6629 3.31061 16.2841 4.47727C16.9129 5.63636 17.2273 6.95454 17.2273 8.43182C17.2273 9.92424 16.9129 11.25 16.2841 12.4091C15.6553 13.5682 14.7273 14.4811 13.5 15.1477C12.2727 15.8068 10.7614 16.1364 8.96591 16.1364H3.18182V12.6705H8.39773C9.44318 12.6705 10.2992 12.4886 10.9659 12.125C11.6326 11.7614 12.125 11.2614 12.4432 10.625C12.7689 9.98864 12.9318 9.25758 12.9318 8.43182C12.9318 7.60606 12.7689 6.87879 12.4432 6.25C12.125 5.62121 11.6288 5.13258 10.9545 4.78409C10.2879 4.42803 9.42803 4.25 8.375 4.25H4.51136V24H0.295455ZM22.8576 24.3523C21.7516 24.3523 20.7553 24.1553 19.869 23.7614C18.9902 23.3598 18.2932 22.7689 17.7781 21.9886C17.2705 21.2083 17.0167 20.2462 17.0167 19.1023C17.0167 18.1174 17.1985 17.303 17.5622 16.6591C17.9258 16.0152 18.422 15.5 19.0508 15.1136C19.6796 14.7273 20.3879 14.4356 21.1758 14.2386C21.9713 14.0341 22.7932 13.8864 23.6417 13.7955C24.6644 13.6894 25.494 13.5947 26.1303 13.5114C26.7667 13.4205 27.2288 13.2841 27.5167 13.1023C27.8122 12.9129 27.9599 12.6212 27.9599 12.2273V12.1591C27.9599 11.303 27.7061 10.6402 27.1985 10.1705C26.6909 9.70076 25.9599 9.46591 25.0053 9.46591C23.9978 9.46591 23.1985 9.68561 22.6076 10.125C22.0243 10.5644 21.6303 11.0833 21.4258 11.6818L17.5849 11.1364C17.8879 10.0758 18.3879 9.18939 19.0849 8.47727C19.7819 7.75757 20.6341 7.2197 21.6417 6.86364C22.6493 6.5 23.7629 6.31818 24.9826 6.31818C25.8235 6.31818 26.6606 6.41667 27.494 6.61364C28.3273 6.81061 29.0887 7.13636 29.7781 7.59091C30.4675 8.03788 31.0205 8.64773 31.4372 9.42045C31.8614 10.1932 32.0735 11.1591 32.0735 12.3182V24H28.119V21.6023H27.9826C27.7326 22.0871 27.3803 22.5417 26.9258 22.9659C26.4788 23.3826 25.9144 23.7197 25.2326 23.9773C24.5584 24.2273 23.7667 24.3523 22.8576 24.3523ZM23.9258 21.3295C24.7516 21.3295 25.4675 21.1667 26.0735 20.8409C26.6796 20.5076 27.1455 20.0682 27.4713 19.5227C27.8046 18.9773 27.9713 18.3826 27.9713 17.7386V15.6818C27.8425 15.7879 27.6228 15.8864 27.3122 15.9773C27.0091 16.0682 26.6682 16.1477 26.2894 16.2159C25.9106 16.2841 25.5356 16.3447 25.1644 16.3977C24.7932 16.4508 24.4713 16.4962 24.1985 16.5341C23.5849 16.6174 23.0356 16.7538 22.5508 16.9432C22.0659 17.1326 21.6834 17.3977 21.4031 17.7386C21.1228 18.072 20.9826 18.5038 20.9826 19.0341C20.9826 19.7917 21.2591 20.3636 21.8122 20.75C22.3652 21.1364 23.0697 21.3295 23.9258 21.3295ZM33.6499 24V6.54545H37.6385V9.45455H37.8203C38.1385 8.44697 38.684 7.67045 39.4567 7.125C40.237 6.57197 41.1272 6.29545 42.1272 6.29545C42.3544 6.29545 42.6082 6.30682 42.8885 6.32954C43.1764 6.3447 43.415 6.37121 43.6044 6.40909V10.1932C43.4302 10.1326 43.1537 10.0795 42.7749 10.0341C42.4037 9.98106 42.0438 9.95455 41.6953 9.95455C40.9453 9.95455 40.2711 10.1174 39.6726 10.4432C39.0817 10.7614 38.6158 11.2045 38.2749 11.7727C37.934 12.3409 37.7635 12.9962 37.7635 13.7386V24H33.6499ZM43.7774 24V6.54545H47.766V9.45455H47.9478C48.266 8.44697 48.8115 7.67045 49.5842 7.125C50.3645 6.57197 51.2547 6.29545 52.2547 6.29545C52.4819 6.29545 52.7357 6.30682 53.016 6.32954C53.3039 6.3447 53.5425 6.37121 53.7319 6.40909V10.1932C53.5577 10.1326 53.2812 10.0795 52.9024 10.0341C52.5312 9.98106 52.1713 9.95455 51.8228 9.95455C51.0728 9.95455 50.3986 10.1174 49.8001 10.4432C49.2092 10.7614 48.7433 11.2045 48.4024 11.7727C48.0615 12.3409 47.891 12.9962 47.891 13.7386V24H43.7774ZM60.7998 24.3409C59.0952 24.3409 57.618 23.9659 56.368 23.2159C55.118 22.4659 54.1483 21.4167 53.4589 20.0682C52.777 18.7197 52.4361 17.1439 52.4361 15.3409C52.4361 13.5379 52.777 11.9583 53.4589 10.6023C54.1483 9.24621 55.118 8.19318 56.368 7.44318C57.618 6.69318 59.0952 6.31818 60.7998 6.31818C62.5043 6.31818 63.9816 6.69318 65.2316 7.44318C66.4816 8.19318 67.4475 9.24621 68.1293 10.6023C68.8187 11.9583 69.1634 13.5379 69.1634 15.3409C69.1634 17.1439 68.8187 18.7197 68.1293 20.0682C67.4475 21.4167 66.4816 22.4659 65.2316 23.2159C63.9816 23.9659 62.5043 24.3409 60.7998 24.3409ZM60.8225 21.0455C61.7467 21.0455 62.5195 20.7917 63.1407 20.2841C63.7619 19.7689 64.224 19.0795 64.527 18.2159C64.8377 17.3523 64.993 16.3902 64.993 15.3295C64.993 14.2614 64.8377 13.2955 64.527 12.4318C64.224 11.5606 63.7619 10.8674 63.1407 10.3523C62.5195 9.83712 61.7467 9.57955 60.8225 9.57955C59.8755 9.57955 59.0877 9.83712 58.4589 10.3523C57.8377 10.8674 57.3717 11.5606 57.0611 12.4318C56.7581 13.2955 56.6066 14.2614 56.6066 15.3295C56.6066 16.3902 56.7581 17.3523 57.0611 18.2159C57.3717 19.0795 57.8377 19.7689 58.4589 20.2841C59.0877 20.7917 59.8755 21.0455 60.8225 21.0455ZM78.8108 6.54545V9.72727H68.7767V6.54545H78.8108ZM71.254 2.36364H75.3676V18.75C75.3676 19.303 75.4509 19.7273 75.6176 20.0227C75.7919 20.3106 76.0191 20.5076 76.2994 20.6136C76.5797 20.7197 76.8903 20.7727 77.2312 20.7727C77.4888 20.7727 77.7237 20.7538 77.9358 20.7159C78.1555 20.678 78.3222 20.6439 78.4358 20.6136L79.129 23.8295C78.9093 23.9053 78.5949 23.9886 78.1858 24.0795C77.7843 24.1705 77.2919 24.2235 76.7085 24.2386C75.6782 24.2689 74.7502 24.1136 73.9244 23.7727C73.0987 23.4242 72.4434 22.8864 71.9585 22.1591C71.4812 21.4318 71.2464 20.5227 71.254 19.4318V2.36364Z" fill="white"/>
</svg>
